<svg width="101" height="100" viewBox="0 0 101 100" fill="none" xmlns="http://www.w3.org/2000/svg">
<path d="M86.892 80.7178L72.762 83.1138L64.578 94.8778L50.418 72.5638L72.732 58.4038L86.892 80.7178Z" fill="#FD8533"/>
<path d="M66.4913 92.1261L67.1133 91.2321L53.8753 70.3701L53.0273 70.9081L66.4913 92.1261Z" fill="white"/>
<path d="M70.1214 60.0601L69.2734 60.5981L82.5114 81.4601L83.5854 81.2781L70.1214 60.0601Z" fill="white"/>
<path d="M14.1074 80.7178L28.2374 83.1138L36.4214 94.8778L50.5814 72.5638L28.2674 58.4038L14.1074 80.7178Z" fill="#FD8533"/>
<path d="M34.5087 92.1261L33.8867 91.2321L47.1247 70.3701L47.9727 70.9081L34.5087 92.1261Z" fill="white"/>
<path d="M30.8781 60.0601L31.7261 60.5981L18.4881 81.4601L17.4141 81.2781L30.8781 60.0601Z" fill="white"/>
<path d="M89.082 58.622V35.09C89.0822 31.8947 88.2411 28.7556 86.6434 25.9883C85.0456 23.2211 82.7474 20.9233 79.98 19.326L59.602 7.56002C56.8348 5.96381 53.6965 5.12354 50.502 5.12354C47.3074 5.12354 44.1691 5.96381 41.402 7.56002L21.02 19.326C18.2525 20.9233 15.9544 23.2211 14.3566 25.9883C12.7588 28.7556 11.9178 31.8947 11.918 35.09V58.622C11.9178 61.8174 12.7588 64.9565 14.3566 67.7237C15.9544 70.4909 18.2525 72.7887 21.02 74.386L41.398 86.152C44.1647 87.7494 47.3032 88.5904 50.498 88.5904C53.6927 88.5904 56.8312 87.7494 59.598 86.152L79.98 74.386C82.7474 72.7887 85.0456 70.4909 86.6434 67.7237C88.2411 64.9565 89.0822 61.8174 89.082 58.622Z" fill="white"/>
<path d="M50.4998 86.5762C47.6581 86.5789 44.8658 85.8333 42.4038 84.4142L22.0238 72.6482C19.5648 71.2231 17.5228 69.1778 16.1018 66.7165C14.6808 64.2553 13.9305 61.4642 13.9258 58.6222V35.0902C13.9308 32.2485 14.6813 29.4578 16.1023 26.9969C17.5233 24.536 19.5651 22.491 22.0238 21.0662L42.4038 9.30016C44.8674 7.88086 47.6606 7.13379 50.5038 7.13379C53.347 7.13379 56.1402 7.88086 58.6038 9.30016L78.9838 21.0662C81.4424 22.491 83.4842 24.536 84.9053 26.9969C86.3263 29.4578 87.0768 32.2485 87.0818 35.0902V58.6222C87.0771 61.4642 86.3268 64.2553 84.9058 66.7165C83.4847 69.1778 81.4427 71.2231 78.9838 72.6482L58.6038 84.4142C56.1394 85.8346 53.3442 86.5804 50.4998 86.5762ZM50.4998 8.14016C47.8322 8.13821 45.2111 8.83833 42.8998 10.1702L22.5198 21.9362C20.2125 23.2717 18.2963 25.1896 16.9626 27.4979C15.6289 29.8062 14.9245 32.4242 14.9198 35.0902V58.6222C14.9245 61.2883 15.629 63.9066 16.9626 66.2152C18.2963 68.5239 20.2125 70.4421 22.5198 71.7782L42.8998 83.5442C45.21 84.8733 47.8285 85.5728 50.4938 85.5728C53.159 85.5728 55.7776 84.8733 58.0878 83.5442L78.4678 71.7782C80.775 70.4421 82.6913 68.5239 84.0249 66.2152C85.3586 63.9066 86.063 61.2883 86.0678 58.6222V35.0902C86.0631 32.4242 85.3587 29.8062 84.025 27.4979C82.6913 25.1896 80.775 23.2717 78.4678 21.9362L58.0998 10.1702C55.7885 8.83833 53.1674 8.13821 50.4998 8.14016Z" fill="#FD8533"/>
<path d="M50.4998 16.8862L51.9378 19.2782L54.6558 19.9062L52.8258 22.0122L53.0677 24.7922L50.4998 23.7022L47.9318 24.7922L48.1737 22.0122L46.3438 19.9062L49.0617 19.2782L50.4998 16.8862Z" fill="#181818"/>
<path d="M42.3505 20.9141L43.0545 22.0861L44.3885 22.3941L43.4905 23.4281L43.6105 24.7921L42.3505 24.2561L41.0905 24.7921L41.2085 23.4281L40.3125 22.3941L41.6445 22.0861L42.3505 20.9141Z" fill="#181818"/>
<path d="M58.6493 20.9141L59.3553 22.0861L60.6873 22.3941L59.7893 23.4281L59.9093 24.7921L58.6493 24.2561L57.3893 24.7921L57.5093 23.4281L56.6113 22.3941L57.9453 22.0861L58.6493 20.9141Z" fill="#181818"/>
<path d="M36.8711 37.4688L38.6523 41.3594L40.4336 37.4688H42.3496L39.543 42.8945V46H37.7617V42.8945L34.9492 37.4688H36.8711ZM49.9609 41.5352V41.9395C49.9609 42.5879 49.873 43.1699 49.6973 43.6855C49.5215 44.2012 49.2734 44.6406 48.9531 45.0039C48.6328 45.3633 48.25 45.6387 47.8047 45.8301C47.3633 46.0215 46.873 46.1172 46.334 46.1172C45.7988 46.1172 45.3086 46.0215 44.8633 45.8301C44.4219 45.6387 44.0391 45.3633 43.7148 45.0039C43.3906 44.6406 43.1387 44.2012 42.959 43.6855C42.7832 43.1699 42.6953 42.5879 42.6953 41.9395V41.5352C42.6953 40.8828 42.7832 40.3008 42.959 39.7891C43.1348 39.2734 43.3828 38.834 43.7031 38.4707C44.0273 38.1074 44.4102 37.8301 44.8516 37.6387C45.2969 37.4473 45.7871 37.3516 46.3223 37.3516C46.8613 37.3516 47.3516 37.4473 47.793 37.6387C48.2383 37.8301 48.6211 38.1074 48.9414 38.4707C49.2656 38.834 49.5156 39.2734 49.6914 39.7891C49.8711 40.3008 49.9609 40.8828 49.9609 41.5352ZM48.1855 41.9395V41.5234C48.1855 41.0703 48.1445 40.6719 48.0625 40.3281C47.9805 39.9844 47.8594 39.6953 47.6992 39.4609C47.5391 39.2266 47.3438 39.0508 47.1133 38.9336C46.8828 38.8125 46.6191 38.752 46.3223 38.752C46.0254 38.752 45.7617 38.8125 45.5312 38.9336C45.3047 39.0508 45.1113 39.2266 44.9512 39.4609C44.7949 39.6953 44.6758 39.9844 44.5938 40.3281C44.5117 40.6719 44.4707 41.0703 44.4707 41.5234V41.9395C44.4707 42.3887 44.5117 42.7871 44.5938 43.1348C44.6758 43.4785 44.7969 43.7695 44.957 44.0078C45.1172 44.2422 45.3125 44.4199 45.543 44.541C45.7734 44.6621 46.0371 44.7227 46.334 44.7227C46.6309 44.7227 46.8945 44.6621 47.125 44.541C47.3555 44.4199 47.5488 44.2422 47.7051 44.0078C47.8613 43.7695 47.9805 43.4785 48.0625 43.1348C48.1445 42.7871 48.1855 42.3887 48.1855 41.9395ZM55.9375 37.4688H57.6895V43.1055C57.6895 43.7617 57.5488 44.3145 57.2676 44.7637C56.9902 45.2129 56.6055 45.5508 56.1133 45.7773C55.625 46.0039 55.0625 46.1172 54.4258 46.1172C53.7891 46.1172 53.2227 46.0039 52.7266 45.7773C52.2344 45.5508 51.8477 45.2129 51.5664 44.7637C51.2891 44.3145 51.1504 43.7617 51.1504 43.1055V37.4688H52.9082V43.1055C52.9082 43.4883 52.9688 43.8008 53.0898 44.043C53.2109 44.2852 53.3848 44.4629 53.6113 44.5762C53.8418 44.6895 54.1133 44.7461 54.4258 44.7461C54.7461 44.7461 55.0176 44.6895 55.2402 44.5762C55.4668 44.4629 55.6387 44.2852 55.7559 44.043C55.877 43.8008 55.9375 43.4883 55.9375 43.1055V37.4688ZM59.1367 37.4688H62.3184C62.9707 37.4688 63.5312 37.5664 64 37.7617C64.4727 37.957 64.8359 38.2461 65.0898 38.6289C65.3438 39.0117 65.4707 39.4824 65.4707 40.041C65.4707 40.498 65.3926 40.8906 65.2363 41.2188C65.084 41.543 64.8672 41.8145 64.5859 42.0332C64.3086 42.248 63.9824 42.4199 63.6074 42.5488L63.0508 42.8418H60.2852L60.2734 41.4707H62.3301C62.6387 41.4707 62.8945 41.416 63.0977 41.3066C63.3008 41.1973 63.4531 41.0449 63.5547 40.8496C63.6602 40.6543 63.7129 40.4277 63.7129 40.1699C63.7129 39.8965 63.6621 39.6602 63.5605 39.4609C63.459 39.2617 63.3047 39.1094 63.0977 39.0039C62.8906 38.8984 62.6309 38.8457 62.3184 38.8457H60.8945V46H59.1367V37.4688ZM63.9062 46L61.9609 42.1973L63.8184 42.1855L65.7871 45.918V46H63.9062ZM28.0586 50.4688H31.2402C31.8926 50.4688 32.4531 50.5664 32.9219 50.7617C33.3945 50.957 33.7578 51.2461 34.0117 51.6289C34.2656 52.0117 34.3926 52.4824 34.3926 53.041C34.3926 53.498 34.3145 53.8906 34.1582 54.2188C34.0059 54.543 33.7891 54.8145 33.5078 55.0332C33.2305 55.248 32.9043 55.4199 32.5293 55.5488L31.9727 55.8418H29.207L29.1953 54.4707H31.252C31.5605 54.4707 31.8164 54.416 32.0195 54.3066C32.2227 54.1973 32.375 54.0449 32.4766 53.8496C32.582 53.6543 32.6348 53.4277 32.6348 53.1699C32.6348 52.8965 32.584 52.6602 32.4824 52.4609C32.3809 52.2617 32.2266 52.1094 32.0195 52.0039C31.8125 51.8984 31.5527 51.8457 31.2402 51.8457H29.8164V59H28.0586V50.4688ZM32.8281 59L30.8828 55.1973L32.7402 55.1855L34.709 58.918V59H32.8281ZM39.2148 51.9277L36.8945 59H35.0254L38.1953 50.4688H39.3848L39.2148 51.9277ZM41.1426 59L38.8164 51.9277L38.6289 50.4688H39.8301L43.0176 59H41.1426ZM41.0371 55.8242V57.2012H36.5312V55.8242H41.0371ZM50.752 50.4688V59H48.9941L45.5664 53.2812V59H43.8086V50.4688H45.5664L49 56.1934V50.4688H50.752ZM54.0391 50.4688V59H52.2812V50.4688H54.0391ZM59.1484 50.4688L55.7676 54.6816L53.8164 56.7793L53.5 55.1152L54.8184 53.3105L56.9922 50.4688H59.1484ZM57.1504 59L54.6367 55.0566L55.9375 53.9668L59.2305 59H57.1504ZM65.6348 57.6289V59H61.0938V57.6289H65.6348ZM61.668 50.4688V59H59.9102V50.4688H61.668ZM65.043 53.9434V55.2793H61.0938V53.9434H65.043ZM65.6289 50.4688V51.8457H61.0938V50.4688H65.6289ZM69.2793 59H67.4219L67.4336 57.6289H69.2793C69.7402 57.6289 70.1289 57.5254 70.4453 57.3184C70.7617 57.1074 71 56.8008 71.1602 56.3984C71.3242 55.9961 71.4062 55.5098 71.4062 54.9395V54.5234C71.4062 54.0859 71.3594 53.7012 71.2656 53.3691C71.1758 53.0371 71.041 52.7578 70.8613 52.5312C70.6816 52.3047 70.4609 52.1348 70.1992 52.0215C69.9375 51.9043 69.6367 51.8457 69.2969 51.8457H67.3867V50.4688H69.2969C69.8672 50.4688 70.3887 50.5664 70.8613 50.7617C71.3379 50.9531 71.75 51.2285 72.0977 51.5879C72.4453 51.9473 72.7129 52.377 72.9004 52.877C73.0918 53.373 73.1875 53.9258 73.1875 54.5352V54.9395C73.1875 55.5449 73.0918 56.0977 72.9004 56.5977C72.7129 57.0977 72.4453 57.5273 72.0977 57.8867C71.7539 58.2422 71.3418 58.5176 70.8613 58.7129C70.3848 58.9043 69.8574 59 69.2793 59ZM68.418 50.4688V59H66.6602V50.4688H68.418Z" fill="#181818"/>
</svg>
